<?xml version="1.0" encoding="utf-8"?>
<!-- Generator: Adobe Illustrator 25.4.1, SVG Export Plug-In . SVG Version: 6.00 Build 0)  -->
<svg version="1.1" id="Layer_1" xmlns="http://www.w3.org/2000/svg" xmlns:xlink="http://www.w3.org/1999/xlink" x="0px" y="0px"
	 viewBox="0 0 612 587.8" style="enable-background:new 0 0 612 587.8;" xml:space="preserve">
<style type="text/css">
	.st0{fill:#EC2326;}
	.st1{fill:#0D8944;}
</style>
<g>
	<g>
		<path class="st0" d="M160.51,244.88c-0.13-5.71-2.67-9.85-7.62-12.41c-1.63-0.84-2.95-1.45-3.96-1.82
			c-3.52-1.29-6.68-0.87-9.48,1.27c-0.13,0.12-0.27,0.4-0.43,0.84c-0.07,0.18-0.11,0.31-0.14,0.39c-0.34,0.04-0.49-0.45-0.45-1.46
			c-0.16,0.44-0.15,0.69,0.03,0.75c-0.04-0.01,0.37-0.1,1.21-0.27c0.84-0.17,1.46-0.22,1.85-0.16c1.65,0.32,2.64,1.44,2.96,3.37
			c0.1,0.74,0.04,1.4-0.17,1.98c-0.28,0.76-0.74,1.29-1.39,1.59c-1.17,1.05-2.55,1.29-4.15,0.7c-1.42-0.52-2.41-1.49-2.98-2.91
			c-0.57-1.42-0.59-2.86-0.06-4.31c0.68-1.85,1.7-3.17,3.05-3.95c4.18-2.42,8.92-2.66,14.22-0.72c4.57,1.68,8.33,4.91,11.27,9.69
			l2.67-7.3l5.21-2.41l-7.59,20.69l-5.06,2.35C160.21,248.67,160.54,246.71,160.51,244.88z"/>
		<path class="st0" d="M170.43,257.52l-0.01,0.06c0.01,0.16-0.1,1.06-0.31,2.72c-0.49,3.81-1.42,6.48-2.79,8.02
			c-2.12,2.33-4.6,3.18-7.43,2.54l-0.57,2.84l-4.94,3.09l4.28-21.38l-18.43-3.69c-0.98-0.2-1.58,0.25-1.8,1.35
			c-0.26,1.29,0.29,2.96,1.64,5s2.7,3.4,4.06,4.07l0.03-0.17c0.2-1.18,0.74-2.11,1.62-2.78c0.88-0.67,1.87-0.9,2.97-0.68
			c0.38,0.08,0.75,0.19,1.11,0.34c2.07,1.08,2.88,2.75,2.43,4.98c-0.33,1.63-1.24,2.82-2.75,3.56c-1.51,0.74-3.07,0.91-4.69,0.51
			c-3.42-0.84-5.94-2.43-7.56-4.77c-3.06-4.4-4.38-7.66-3.96-9.78c0.66-3.3,2.92-5.12,6.77-5.45c0.6-0.04,2.02,0.17,4.25,0.61
			l15.07,3.02l0.84-4.21l4.63-2.45l-4.4,22.01c0.38,0.08,0.72,0.16,1.01,0.26c1.58,0,2.44-1.05,2.58-3.15
			c0.28-1.4,0.56-3.3,0.84-5.69c0.12-1,0.22-1.69,0.3-2.07c0.47-2.35,1.43-4.31,2.89-5.87c1.71-1.83,3.68-2.52,5.92-2.07
			c1.1,0.22,2,0.74,2.71,1.55c0.51,0.42,0.69,0.99,0.55,1.71c-0.05,0.27-0.19,0.47-0.42,0.63c-0.44,0.03-0.96-0.02-1.57-0.14
			c-0.36-0.55-0.74-0.86-1.11-0.93c-1.14-0.23-2.07,0.37-2.79,1.81C171.1,253.5,170.77,255.03,170.43,257.52z"/>
		<path class="st0" d="M163.56,300.89c2.34-2.72,3.63-5.91,3.86-9.58c0.13-2.01-0.52-4.26-1.95-6.75c-0.51-0.58-1.24-1.26-2.19-2.06
			c-1.1-0.92-1.83-1.38-2.18-1.36l-2.15,0.85l-0.33,5.21l-4.31,3.79l0.52-8.1l-30.1-1.91l4.2-3.86l26.16,1.66l0.25-3.91l4.31-3.77
			l-0.48,7.52c0.53-0.47,1.1-0.93,1.69-1.38c0.59-0.45,1.23-0.65,1.93-0.6c1.16,0.11,2.05,0.38,2.68,0.81
			c1.67,1.19,2.89,2.26,3.66,3.2c0.77,0.94,1.53,2.34,2.26,4.21c0.47,1.15,0.65,2.5,0.56,4.05c-0.24,3.82-1.83,7.81-4.77,11.96
			c-0.94,1.3-2.61,2.99-5.03,5.08l-3.84,1.03L163.56,300.89z"/>
		<path class="st0" d="M156.18,314.62l-30.46,2.58l3.58-4.44l16.24-1.38c0.73-0.06,1.42-0.46,2.05-1.21
			c0.64-0.74,0.92-1.48,0.86-2.22c-0.05-0.62-0.38-1.07-0.99-1.33c-0.6-0.22-1.8-0.12-3.58,0.3l-1.34-2.8
			c0.84,0.28,1.53,0.22,2.08-0.18c1.09-0.87,1.72-1.45,1.89-1.73c0.88-1.01,1.26-2.28,1.13-3.82c-0.1-1.23-0.63-2.28-1.58-3.15
			c-0.95-0.87-2.04-1.25-3.27-1.15c-1.58,0.13-2.58,0.9-3.01,2.29c0.41-0.19,0.85-0.3,1.31-0.34c1.08-0.09,2,0.21,2.75,0.9
			c0.76,0.69,1.18,1.58,1.27,2.66c0.18,1.65-0.66,2.93-2.53,3.82c-1.49,0.75-2.59,1-3.31,0.75c-2.15-0.67-3.33-2.2-3.53-4.59
			c-0.23-2.66,0.4-4.85,1.89-6.56c1.48-1.72,3.54-2.69,6.16-2.91c2.16-0.18,4.11,0.23,5.87,1.24c1.96,1.15,3.05,2.76,3.26,4.83
			c0.22,2.19-0.42,4.18-1.94,5.97l-0.49,0.45c0.72,0.29,1.41,0.79,2.08,1.51c0.66,0.72,1,1.41,1.02,2.06
			c0.03,1.24-0.29,2.29-0.95,3.16c-0.43,0.38-0.83,0.75-1.19,1.09c-0.14,0.17-0.3,0.34-0.48,0.51l4.85-0.41l-1.87-22.03l3.69-4.5
			l2.89,34.1l-3.69,4.5L156.18,314.62z"/>
		<path class="st0" d="M160.25,335.66c-3.36-4.62-7.8-6.58-13.33-5.86c-1.82,0.23-3.25,0.48-4.3,0.76
			c-3.63,0.94-5.99,3.09-7.08,6.44c-0.04,0.17,0.01,0.48,0.12,0.94c0.05,0.19,0.08,0.32,0.1,0.4c-0.26,0.23-0.66-0.09-1.2-0.95
			c0.12,0.45,0.27,0.65,0.46,0.6c-0.04,0.01,0.24-0.29,0.84-0.91c0.6-0.62,1.08-1.01,1.43-1.18c1.54-0.68,2.99-0.32,4.36,1.09
			c0.5,0.55,0.83,1.12,0.99,1.72c0.2,0.79,0.12,1.49-0.23,2.1c-0.36,1.53-1.37,2.51-3.01,2.94c-1.46,0.38-2.83,0.14-4.11-0.7
			c-1.28-0.85-2.11-2.02-2.5-3.52c-0.5-1.91-0.41-3.57,0.26-4.98c2.06-4.37,5.82-7.26,11.29-8.68c4.72-1.22,9.64-0.71,14.79,1.56
			l-1.95-7.52l2.91-4.95l5.54,21.33l-2.83,4.81C162.16,338.96,161.32,337.15,160.25,335.66z"/>
		<path class="st0" d="M170.86,359.45l-28.02,12.22l1.2-3.05c2.41-2.7,4.02-5.28,4.85-7.75c0.6-1.82,0.82-3.44,0.67-4.85
			c-0.09-1.18-0.54-2.78-1.33-4.8l3.29-6.24c2.83,1.08,6.23,2.68,10.19,4.79c0.1-0.55,0.17-1.06,0.21-1.55
			c0.04-0.48-0.13-1.89-0.51-4.21c-0.36-2.08-0.37-3.51-0.04-4.29l0.58-1.14l2.01-5.12l12.27,28.12l-2.07,5.4L170.86,359.45z
			 M169.21,355.68l-3.36-7.71c-0.35,1.8-1.4,4.49-3.12,8.07c-1.13-0.35-2.63-0.96-4.53-1.82c-0.52-0.32-1.96-0.87-4.33-1.65
			c0.22,3.8-0.69,7.47-2.73,11L169.21,355.68z"/>
		<path class="st0" d="M176.97,367.85c2.18-1.62,4.66-3.28,7.42-4.98l-0.41,2.88c-0.95,0.81-1.7,1.59-2.24,2.33
			c-0.12,0.25-0.25,0.58-0.41,0.99l2.26,3.67l-1.35,5.55l-4.23-6.86l-26.72,16.46l1.58-5.6l18.68-11.51
			c0.99-0.61,1.64-1.28,1.95-2.02c0.79-1.8,0.75-3.42-0.12-4.83c-0.1-0.16-0.26-0.43-0.49-0.79l1.23-5.53
			c1.59,2.07,2.65,3.72,3.2,4.98C178.08,364.3,177.95,366.06,176.97,367.85z"/>
		<path class="st0" d="M191.93,394.74l2.79-2.72c1.5-1.46,3.88-3.56,7.13-6.29l-0.33,4.21c-0.84,0.2-1.55,0.89-2.12,2.08
			c-0.07,0.16,0.01,0.47,0.25,0.93c0.85,0.95,1.71,1.97,2.57,3.07l-0.5,5.72l-5.37-6.4l-23.85,20.03l0.73-6.44l12.32-10.04
			c1.01-0.84,1.88-2.19,2.64-4.03c0.75-1.84,1.08-3.45,0.98-4.83c-0.1-1.38-0.5-2.49-1.19-3.32c-1.59-1.9-3.49-2.68-5.68-2.35
			c0.46,0.37,0.93,0.84,1.4,1.4c2.41,2.87,2.45,5.59,0.11,8.16c-1.67,1.8-5.61,2.54-11.84,2.22l0.91-6.22
			c1.19,0.16,2.84,0.32,4.94,0.47c2.65,0.15,4.14,0.09,4.46-0.19c0.35-0.3,0.32-0.7-0.1-1.2c-0.17-0.21-1.04-0.61-2.61-1.21
			c-1.57-0.6-2.54-1.13-2.91-1.57c-0.3-0.36-0.47-0.77-0.51-1.24c-0.29-1.98,0.25-3.55,1.65-4.71c0.98-0.82,2.27-1.36,3.87-1.62
			c1.6-0.26,3.01-0.17,4.24,0.27c1.46,0.54,2.79,1.52,3.98,2.94C193.66,386.35,194.34,390.65,191.93,394.74z"/>
		<path class="st0" d="M204.87,401.79c1.62-2.18,3.51-4.48,5.67-6.91l0.44,2.88c-0.68,1.05-1.17,2.01-1.48,2.88
			c-0.04,0.27-0.07,0.63-0.11,1.07l3.22,2.86l0.31,5.71l-6.03-5.35l-20.84,23.46l-0.1-5.82l14.57-16.41c0.77-0.87,1.2-1.7,1.29-2.5
			c0.24-1.96-0.26-3.49-1.51-4.59c-0.14-0.13-0.38-0.33-0.69-0.62l-0.42-5.65c2.12,1.52,3.62,2.8,4.5,3.84
			C204.91,398.08,205.3,399.79,204.87,401.79z"/>
		<path class="st0" d="M223.92,419c-5.55-1.35-10.2,0.03-13.96,4.15c-1.24,1.35-2.17,2.47-2.79,3.36c-2.16,3.07-2.57,6.23-1.23,9.49
			c0.08,0.15,0.32,0.36,0.7,0.63c0.16,0.11,0.27,0.19,0.34,0.24c-0.05,0.34-0.56,0.36-1.53,0.06c0.38,0.27,0.62,0.32,0.74,0.16
			c-0.02,0.03,0-0.38,0.06-1.24c0.06-0.86,0.17-1.46,0.33-1.83c0.73-1.51,2.08-2.18,4.02-1.99c0.74,0.09,1.36,0.32,1.87,0.67
			c0.66,0.47,1.06,1.05,1.18,1.75c0.72,1.4,0.58,2.8-0.39,4.19c-0.87,1.23-2.06,1.94-3.59,2.12c-1.52,0.18-2.92-0.17-4.18-1.06
			c-1.61-1.13-2.62-2.46-3.02-3.97c-1.26-4.67-0.26-9.31,2.99-13.92c2.8-3.99,6.9-6.78,12.28-8.38l-6.36-4.47l-0.98-5.66
			l18.03,12.68l0.96,5.5C227.51,420.28,225.7,419.45,223.92,419z"/>
		<path class="st0" d="M247.4,430.31l-13.48,27.43l-1.06-3.1c0.1-3.62-0.34-6.63-1.31-9.04c-0.72-1.78-1.6-3.15-2.62-4.13
			c-0.84-0.84-2.21-1.77-4.12-2.8l-1.53-6.89c2.86-1,6.49-1.98,10.87-2.93c-0.28-0.48-0.56-0.92-0.84-1.32
			c-0.28-0.4-1.31-1.36-3.11-2.88c-1.62-1.35-2.55-2.44-2.8-3.25l-0.29-1.24l-1.77-5.2l27.54,13.53l1.91,5.46L247.4,430.31z
			 M243.7,428.49l-7.55-3.71c0.89,1.6,1.84,4.33,2.83,8.18c-1.09,0.46-2.63,0.97-4.63,1.54c-0.6,0.09-2.06,0.6-4.37,1.53
			c2.63,2.76,4.3,6.14,5.02,10.16L243.7,428.49z"/>
		<path class="st0" d="M257.47,432.76c0.62-2.64,1.43-5.51,2.44-8.6l1.55,2.46c-0.2,1.24-0.27,2.31-0.21,3.23
			c0.07,0.27,0.18,0.61,0.33,1.02l4.1,1.34l2.56,5.11l-7.66-2.5l-9.74,29.83l-2.42-5.3l6.81-20.86c0.36-1.1,0.42-2.03,0.18-2.8
			c-0.56-1.89-1.63-3.09-3.21-3.61c-0.18-0.06-0.48-0.16-0.88-0.29l-2.63-5.01c2.55,0.55,4.43,1.12,5.66,1.73
			C256.02,429.34,257.06,430.76,257.47,432.76z"/>
		<path class="st0" d="M286.26,443.57l0.36-3.88c0.2-2.08,0.65-5.22,1.36-9.42l2.48,3.42c-0.51,0.7-0.6,1.68-0.27,2.96
			c0.05,0.17,0.31,0.35,0.79,0.54c1.26,0.18,2.58,0.4,3.95,0.67l3.33,4.68l-8.23-1.39l-5.2,30.71l-3.62-5.38l2.88-15.63
			c0.22-1.3,0.02-2.89-0.6-4.78c-0.62-1.89-1.42-3.33-2.39-4.32c-0.97-0.99-1.99-1.57-3.06-1.75c-2.44-0.41-4.39,0.22-5.85,1.89
			c0.59-0.02,1.25,0.04,1.97,0.16c3.7,0.63,5.49,2.67,5.37,6.15c-0.1,2.45-2.63,5.58-7.59,9.36l-3.33-5.33
			c1.01-0.65,2.37-1.6,4.07-2.84c2.11-1.6,3.21-2.61,3.28-3.03c0.08-0.46-0.21-0.74-0.86-0.85c-0.27-0.05-1.19,0.21-2.78,0.76
			c-1.58,0.56-2.66,0.78-3.23,0.69c-0.46-0.08-0.85-0.28-1.19-0.61c-1.5-1.31-2.1-2.87-1.8-4.66c0.21-1.26,0.85-2.5,1.9-3.74
			c1.05-1.23,2.19-2.08,3.4-2.54c1.46-0.54,3.11-0.65,4.94-0.34C282.14,436.05,285.44,438.89,286.26,443.57z"/>
		<path class="st0" d="M338.46,429.26c-3.05-1.88-6.41-2.65-10.07-2.3c-2,0.19-4.12,1.19-6.36,3c-0.49,0.59-1.05,1.42-1.68,2.49
			c-0.74,1.24-1.07,2.03-1,2.37l1.18,1.99l5.2-0.5l4.43,3.66l-8.08,0.77l2.86,30.02l-4.47-3.54l-2.49-26.1l-3.9,0.37l-4.4-3.66
			l7.51-0.72c-0.55-0.45-1.09-0.93-1.62-1.45c-0.53-0.51-0.83-1.11-0.9-1.81c-0.07-1.16,0.05-2.08,0.38-2.77
			c0.91-1.83,1.77-3.21,2.58-4.12c0.81-0.91,2.07-1.88,3.8-2.9c1.06-0.64,2.37-1.04,3.91-1.19c3.81-0.36,8,0.58,12.56,2.82
			c1.43,0.72,3.37,2.11,5.82,4.17l1.63,3.63L338.46,429.26z"/>
		<path class="st0" d="M340.32,447.91c0.91,0.82,1.55,1.58,1.92,2.29c0.18,0.43,0.32,0.86,0.42,1.27c0.29,1.2,0.12,2.27-0.49,3.19
			c-0.62,0.92-1.6,1.54-2.95,1.87c-3.95,0.94-6.39-0.56-7.34-4.51c-0.47-1.99-0.15-3.82,0.98-5.48c1.13-1.66,2.71-2.73,4.73-3.21
			c3.64-0.87,7.27,0.65,10.89,4.56l0.49,0.54l-2.9-12.19l-18.85,4.49l-4.88-3.01l30.69-7.31l5.06,2.97l-8.01,1.91l7.29,30.58
			l-2.84-2.42c-0.06-0.26-0.14-0.58-0.23-0.96c-0.34-1.43-1.15-3.24-2.43-5.44c-1.08-2.01-2.13-3.64-3.16-4.88
			c-1.03-1.24-2.26-2.27-3.69-3.09C343.3,448.07,341.74,447.69,340.32,447.91z"/>
		<path class="st0" d="M375.32,424.88l12.56,28.18l-3.08-1.36c-1.7-1.44-2.82-2.34-3.36-2.69c-1.04-0.72-2.32-1.36-3.84-1.91
			c-2.03-0.75-3.76-1.07-5.2-0.98c-1.23,0.08-2.93,0.55-5.1,1.38l-6.24-3.31c1.13-2.96,2.18-5.37,3.12-7.24
			c0.21-0.39,0.74-1.39,1.59-2.99c-0.37-0.17-0.62-0.25-0.74-0.24c-0.79-0.07-2.51,0.21-5.15,0.84c-2.01,0.52-3.76,0.34-5.25-0.52
			l-5.29-2.03l28.13-12.54l5.52,1.98L375.32,424.88z M371.56,426.56l-7.42,3.31c0.62,0.15,1.26,0.31,1.93,0.47
			c0.41,0.16,2.41,1.08,6,2.79c-0.43,1.42-1.02,2.89-1.78,4.41c-0.34,0.75-0.87,2.23-1.57,4.45c3.76-0.24,7.4,0.66,10.92,2.69
			L371.56,426.56z M375.66,455.27c-0.99,0.44-1.97,0.47-2.95,0.08c-0.98-0.39-1.67-1.04-2.08-1.96c-0.39-0.88-0.42-1.78-0.09-2.69
			c0.33-0.91,0.94-1.56,1.83-1.96c0.99-0.44,1.97-0.47,2.94-0.1c0.97,0.37,1.65,1,2.05,1.88c0.39,0.88,0.43,1.8,0.11,2.74
			C377.14,454.21,376.54,454.88,375.66,455.27z"/>
		<path class="st0" d="M395.14,419.25c0.44,0.21,0.8,0.52,1.09,0.93c0.63,0.88,0.89,1.94,0.78,3.19c-0.11,1.24-0.57,2.16-1.39,2.74
			c-1.26,0.9-2.57,1.13-3.92,0.7c-1.36-0.43-2.33-1.37-2.92-2.79c-1.14-2.79-0.47-5.08,2.01-6.86c1.42-1.01,3.07-1.55,4.97-1.62
			c2.46-0.14,4.21-0.09,5.25,0.17c0.77-1.31,0.64-2.69-0.39-4.14c-0.34-0.47-0.98-0.91-1.94-1.32c-0.34-0.14-0.74-0.04-1.21,0.3
			l-17.41,12.44l-5.8-0.84l29.73-21.24l5.71,0.91l-9.01,6.44l-0.67-0.94c0.38-0.27,1.33,0.14,2.87,1.23
			c1.39,0.95,2.27,1.68,2.63,2.18c0.63,0.88,0.89,2.05,0.79,3.5c0.03,0.17-0.12,1.39-0.44,3.67c-2.13,1-3.7,1.43-4.71,1.29
			l0.11,0.06c-0.54,0.1-1.63,0.05-3.26-0.17C396.84,419.03,395.89,419.1,395.14,419.25z"/>
		<path class="st0" d="M407.16,416.38l0.08,0c-0.17,0.16-0.41,0.53-0.71,1.11c-0.16,0.51-0.3,1.36-0.42,2.55
			c0.02,0.6,0.16,1.17,0.4,1.72c0.17-0.16,0.31-0.29,0.43-0.39c0.63-0.58,1.35-0.82,2.17-0.73c0.82,0.09,1.51,0.45,2.09,1.08
			c0.76,0.83,1.03,1.81,0.82,2.95c-0.21,1.14-0.72,2.08-1.52,2.81c-0.66,0.6-1.53,0.98-2.62,1.14c-1.09,0.16-1.98,0.02-2.67-0.42
			c-0.69-0.44-1.29-0.93-1.78-1.47c-0.91-1-1.49-2.15-1.74-3.44c-0.09-0.5-0.15-1.77-0.2-3.83c0.22-0.73,0.53-1.74,0.91-3.04
			c0.01-0.79,0.64-1.77,1.89-2.91c1.82-1.67,3.93-1.87,6.31-0.59c0.38,0.18,1.71,1.53,4.01,4.03l11.32,12.36l-2.88,0.04
			c-0.67-0.28-1.55-0.55-2.63-0.81c-1.33-0.2-2.61,0.27-3.84,1.39c-0.54,0.5-1.21,1.29-1.99,2.38c-0.9,1.19-1.55,2-1.95,2.42
			c-0.97,1-2.21,1.79-3.72,2.38c-1.62,0.64-3.03,0.78-4.25,0.43c-2.17-0.53-3.94-1.55-5.33-3.07c-1.18-1.28-2.08-2.9-2.7-4.84
			c-0.19-0.61-0.05-0.97,0.42-1.09l2.13-0.25c0.64,1.38,1.28,2.43,1.92,3.13c1.29,1.41,2.62,2.03,3.99,1.86
			c1.18-0.14,3.04-1.64,5.57-4.48c0.6-0.55,1.03-0.94,1.28-1.18c1.57-1.44,3.05-2.17,4.45-2.19c0.11,0,0.3,0.01,0.57,0.02
			l-7.25-7.91c-0.21-0.23-0.67-0.54-1.4-0.92c-0.45-0.27-0.64-0.44-0.55-0.52L407.16,416.38z"/>
		<path class="st0" d="M422.7,401.73c-0.35-0.31-0.65-0.58-0.91-0.81c-1.42-1.25-1.4-2.71,0.06-4.36c1.15-1.3,2.62-1.65,4.42-1.05
			c0.56,0.19,1.03,0.44,1.4,0.78c1.1,0.97,1.53,2.24,1.28,3.8c-0.25,1.56-0.93,2.86-2.04,3.88c-1.81,1.7-3.87,2.48-6.18,2.35
			c-2.12-0.12-4.04-0.94-5.78-2.48c-1.88-1.67-3.06-3.69-3.54-6.07c-0.61-2.81,0.17-5.45,2.35-7.91c0.56-0.64,1.15-1.1,1.76-1.38
			c1.07-0.39,1.8-0.63,2.18-0.71c1.73-0.38,3.92-0.2,6.57,0.54c-0.95-0.68-2.02-1.45-3.22-2.31c-1.35-0.99-3.67-3.04-6.95-6.15
			c0.68-0.02,1.37-0.05,2.07-0.1c1.17,0,1.97,0.12,2.42,0.36c0.7,0.41,1.28,0.62,1.74,0.61c0.27,0.04,0.87-0.06,1.78-0.29l2.27-2.56
			l5.73-0.35l-5.57,6.3l22.72,20.1l-6.18,0.34l-12.21-10.8c-1.74-1.54-3.82-2.28-6.25-2.21c-2.07,0.07-3.64,0.71-4.72,1.92
			c-0.92,1.04-1.25,2.28-1.01,3.73s0.78,2.54,1.62,3.29c0.7,0.61,1.58,1.11,2.65,1.47C421.8,401.85,422.32,401.87,422.7,401.73z"/>
		<path class="st0" d="M446.41,345.23l0.86,0.36c0.93-2.22,2.76-3.92,5.48-5.1c2.55-1.08,5.05-1.4,7.51-0.95
			c0.93,0.18,1.75,0.42,2.47,0.72c1.5,0.63,2.62,1.6,3.36,2.92c0.82,1.44,0.93,2.89,0.31,4.35c-0.43,1.03-1.2,1.8-2.29,2.31
			c-1.09,0.51-2.16,0.54-3.19,0.11c-1.18-0.49-2-1.53-2.47-3.11c0.07-0.77,0.22-1.42,0.44-1.95c0.43-1.03,1.32-1.84,2.65-2.41
			c0.22-0.12,0.42-0.14,0.59-0.06c0.41,0.13,0.41,0.67,0,1.64c-0.39-0.46-0.68-0.73-0.86-0.8c-1.5-0.63-3.16-0.57-4.98,0.17
			c-2.08,0.85-3.5,2.24-4.27,4.18l22.14,9.3l-2.81,1.15c-1.95-0.15-3.17-0.2-3.65-0.15c-0.93,0.03-2.15,0.27-3.64,0.73
			c-1.83,0.57-3.23,1.2-4.19,1.89c-2.1,1.51-3.78,3.36-5.04,5.56l-6.83,2.04c-1.84-6.1-2.49-12.33-1.96-18.69l-1.18-0.49
			l-6.71,15.95l-5.33,2.2l14.63-34.81l5.29-2.12L446.41,345.23z M451.17,357.86c0.12,0.51,0.38,1.65,0.77,3.41
			c3.03-2.71,6.42-4.41,10.19-5.09l-11.28-4.74C450.78,354.09,450.89,356.23,451.17,357.86z"/>
		<path class="st0" d="M447.25,305.04c-2.78,2.28-4.59,5.2-5.45,8.77c-0.47,1.96-0.22,4.28,0.76,6.98c0.4,0.65,1,1.46,1.81,2.4
			c0.93,1.1,1.57,1.67,1.91,1.71l2.26-0.47l1.22-5.07l4.9-3l-1.9,7.89l29.32,7.06l-4.8,3.08l-25.49-6.14l-0.92,3.81l-4.89,2.97
			l1.77-7.33c-0.61,0.37-1.24,0.73-1.9,1.06c-0.66,0.34-1.33,0.43-2,0.26c-1.12-0.31-1.95-0.73-2.5-1.26
			c-1.44-1.46-2.46-2.72-3.06-3.78c-0.6-1.06-1.1-2.57-1.5-4.54c-0.26-1.22-0.21-2.58,0.15-4.08c0.9-3.72,3.15-7.37,6.76-10.96
			c1.14-1.12,3.09-2.5,5.83-4.14l3.96-0.36L447.25,305.04z"/>
		<path class="st0" d="M457.49,317.08l0.01-0.06c-0.32,0.48-0.97,1.02-1.96,1.62l-1.27,0.52l-4.17,3.45l3-31.93l4.54-3.71
			l-0.79,8.43l30.43,2.85l-2.77,2.07c-3.68,0.55-6.1,1.39-7.26,2.52c-1.71,1.59-2.82,2.79-3.32,3.59c1.61,1.47,2.32,3.27,2.12,5.38
			c-0.21,2.19-1.29,3.78-3.24,4.76c-0.31-0.03-0.75,0-1.32,0.08c-0.57,0.08-0.99,0.11-1.26,0.09c-1.81-0.17-3.15-0.96-4.03-2.36
			c-0.82-1.24-1.14-2.79-0.96-4.63c0.05-0.58,0.16-1.07,0.31-1.49c-1.99,0.09-3.61,0.87-4.88,2.34c-0.3,0.36-0.84,1.51-1.61,3.46
			C458.4,315.65,457.88,316.65,457.49,317.08z M456.47,299.34l-1.05,11.2c1.93-1.92,3.23-3.13,3.9-3.65
			c1.59-1.25,3.18-1.99,4.75-2.23c2.56-0.38,4.39-0.48,5.5-0.3c1.09-0.87,2.67-1.98,4.74-3.34L456.47,299.34z"/>
		<path class="st0" d="M454.51,263.16l30.28-3.18l-3.67,4.53l-18.25,1.74c-0.73,0.08-1.86,0.76-3.4,2.05
			c-1.75,1.47-2.52,2.66-2.31,3.57c0.3,1.33,0.87,2.07,1.71,2.21c1.87-3.11,3.68-4.76,5.43-4.94c0.39-0.04,1.14,0.02,2.26,0.17
			c1.54,0.42,2.41,1.65,2.63,3.69c0.17,1.65-0.52,3.17-2.09,4.54c0.82,0.38,1.55,0.99,2.21,1.84c0.65,0.85,1.02,1.69,1.11,2.54
			c0.13,1.23-0.25,2.27-1.15,3.12s-1.95,1.34-3.17,1.47c-1.18,0.12-2.49-0.26-3.94-1.16c-1.32-0.79-2.32-1.76-3.02-2.89
			c-0.43,0.32-0.94,0.78-1.53,1.39c-0.49,0.83-0.7,1.78-0.62,2.86c-0.12-1.11-0.01-0.06,0.33,3.17l-3.61,4.46l-0.77-7.33
			c-0.15-1.46,0.11-2.79,0.8-3.99c0.86-1.1,1.3-1.67,1.34-1.72c0.48-0.59,1-1.06,1.55-1.39c-2.06-0.87-3.62-2.55-4.68-5.05
			c-0.26-0.67-0.4-1.14-0.43-1.41c-0.15-1.42,1.81-3.73,5.88-6.92l0.85-0.67l-6.52,1.23l-6.77,1.04c0.96-1.32,1.77-2.36,2.44-3.12
			c0.33-0.26,0.76-0.46,1.29-0.59c0.27-0.03,0.54-0.06,0.82-0.09c0.48-0.32,0.78-0.8,0.91-1.44l-0.28-2.65l3.61-4.46L454.51,263.16z
			"/>
		<path class="st0" d="M460.1,245.38c0.75-0.96,1.47-1.65,2.15-2.07c0.42-0.21,0.83-0.38,1.24-0.51c1.18-0.37,2.25-0.28,3.21,0.27
			c0.96,0.55,1.65,1.49,2.06,2.82c1.21,3.88-0.13,6.42-4,7.63c-1.96,0.61-3.8,0.41-5.54-0.61c-1.73-1.01-2.91-2.51-3.53-4.5
			c-1.11-3.57,0.16-7.29,3.81-11.18l0.51-0.52l-11.96,3.73l5.77,18.5l-2.67,5.07l-9.39-30.12l2.62-5.25l2.45,7.86l30.01-9.35
			l-2.22,3c-0.26,0.08-0.57,0.18-0.94,0.29c-1.4,0.44-3.16,1.37-5.26,2.8c-1.93,1.21-3.48,2.37-4.66,3.49
			c-1.17,1.11-2.11,2.41-2.83,3.89C460.06,242.39,459.78,243.98,460.1,245.38z"/>
	</g>
	<g>
		<path class="st0" d="M225.84,146.46l16.69,26.44l-4.22-1.79c-6.14-4.44-12.3-5.04-18.48-1.78l-6.77-2.79
			c1.43-3.6,2.71-6.35,3.84-8.26c2.12-3.53,4.14-6.48,6.08-8.84l-0.53-0.83l-15.55,9.81l-5.55-1.3l25.65-16.19l5.55,1.3
			L225.84,146.46z M226.11,154.39c-1.89,2.52-3.67,5.56-5.34,9.14c4.35-0.5,8.36-0.02,12.03,1.46L226.11,154.39z"/>
		<path class="st0" d="M236.93,140.01c-1.32-2.38-2.64-5.04-3.97-8.01l2.8,0.78c0.68,1.05,1.35,1.89,2.01,2.53
			c0.23,0.15,0.55,0.33,0.93,0.54l3.93-1.76l5.33,2.06l-7.36,3.3l12.83,28.64l-5.35-2.3l-8.97-20.02c-0.47-1.06-1.06-1.79-1.75-2.2
			c-1.69-1.02-3.29-1.19-4.81-0.51c-0.18,0.08-0.46,0.21-0.85,0.38l-5.32-1.94c2.25-1.31,4.04-2.15,5.35-2.52
			C233.56,138.45,235.29,138.8,236.93,140.01z"/>
		<path class="st0" d="M262.38,143.7c-0.53,0.62-1.41,1.12-2.62,1.51c-1.88,0.6-3.72,0.42-5.53-0.53c-1.8-0.95-3.01-2.39-3.63-4.32
			c-0.55-1.74-0.38-3.54,0.54-5.4c0.91-1.86,2.21-3.06,3.91-3.6c1.84-0.59,3.65-0.37,5.41,0.66c1.77,1.03,2.95,2.46,3.53,4.31
			c0.36,1.15,0.39,2.43,0.07,3.86C263.74,141.63,263.18,142.79,262.38,143.7z M271.92,159.35c-2.88-1.4-7.92-3.2-15.11-5.42
			l-2.44-7.68c2.51,0.99,5.58,2.36,9.23,4.12c2.06,1.01,6.28,3.62,12.66,7.84l1.25,3.92L271.92,159.35z M257.77,134.76
			c-0.77,0.25-1.6,1.1-2.47,2.57c-0.55,0.95-0.63,2.1-0.24,3.45c0.28,1.02,0.79,1.41,1.53,1.17c0.55-0.18,1.24-0.76,2.06-1.76
			c0.82-1,1.26-1.79,1.31-2.38c0.03-0.3-0.09-0.87-0.37-1.73C259.22,134.94,258.61,134.49,257.77,134.76z"/>
		<path class="st0" d="M295.56,125.78l3.99,30.3l-4.6-3.37l-2.13-16.16c-0.1-0.73-0.53-1.39-1.3-1.99s-1.52-0.85-2.26-0.75
			c-0.62,0.08-1.05,0.43-1.28,1.05c-0.19,0.61-0.04,1.8,0.47,3.57l-2.73,1.47c0.24-0.85,0.15-1.54-0.27-2.07
			c-0.92-1.05-1.52-1.65-1.82-1.81c-1.05-0.84-2.34-1.15-3.87-0.95c-1.23,0.16-2.25,0.74-3.08,1.72c-0.83,0.99-1.16,2.09-1,3.32
			c0.21,1.57,1.02,2.54,2.43,2.9c-0.21-0.4-0.34-0.83-0.4-1.29c-0.14-1.07,0.12-2,0.77-2.79s1.52-1.25,2.6-1.4
			c1.64-0.25,2.96,0.53,3.94,2.35c0.81,1.45,1.12,2.54,0.9,3.27c-0.57,2.18-2.04,3.43-4.42,3.74c-2.65,0.35-4.86-0.18-6.64-1.58
			c-1.78-1.4-2.85-3.41-3.19-6.01c-0.28-2.15,0.04-4.12,0.97-5.92c1.06-2.01,2.62-3.17,4.68-3.48c2.17-0.32,4.19,0.23,6.05,1.66
			l0.47,0.46c0.25-0.74,0.72-1.45,1.41-2.15c0.69-0.69,1.36-1.07,2.01-1.11c1.23-0.08,2.3,0.19,3.2,0.81
			c0.4,0.41,0.79,0.79,1.14,1.14c0.17,0.13,0.35,0.29,0.53,0.46l-0.64-4.83l-21.92,2.89l-4.66-3.48l33.93-4.47l4.67,3.48
			L295.56,125.78z"/>
		<path class="st0" d="M308.88,124.88c-0.17-2.71-0.21-5.69-0.14-8.94l2.2,1.91c0.16,1.24,0.41,2.29,0.73,3.15
			c0.15,0.24,0.35,0.53,0.61,0.88l4.31,0.1l3.92,4.15l-8.06-0.19l-0.74,31.37l-3.84-4.38l0.52-21.94c0.03-1.16-0.18-2.07-0.63-2.74
			c-1.08-1.65-2.46-2.49-4.12-2.53c-0.19,0-0.5-0.01-0.93-0.02l-3.97-4.04c2.6-0.21,4.57-0.2,5.92,0.02
			C306.52,122.02,307.92,123.07,308.88,124.88z"/>
		<path class="st0" d="M335.48,129.24c-5.55,1.36-9.04,4.73-10.47,10.12c-0.47,1.77-0.78,3.19-0.93,4.26
			c-0.5,3.72,0.59,6.71,3.28,8.99c0.14,0.1,0.45,0.18,0.91,0.24c0.19,0.03,0.33,0.04,0.41,0.05c0.11,0.33-0.33,0.58-1.33,0.76
			c0.46,0.06,0.7,0,0.73-0.19c0,0.04-0.18-0.34-0.52-1.12c-0.34-0.79-0.53-1.38-0.55-1.77c-0.05-1.68,0.84-2.89,2.65-3.62
			c0.7-0.26,1.35-0.34,1.97-0.26c0.8,0.11,1.42,0.45,1.85,1.01c1.28,0.91,1.81,2.21,1.58,3.9c-0.2,1.49-0.94,2.67-2.2,3.54
			c-1.27,0.86-2.67,1.19-4.2,0.98c-1.95-0.26-3.46-0.97-4.51-2.13c-3.27-3.56-4.52-8.14-3.77-13.73c0.65-4.83,3-9.19,7.03-13.1
			l-7.7-1.04l-3.48-4.57l21.84,2.94l3.38,4.44C339.25,128.72,337.26,128.82,335.48,129.24z"/>
		<path class="st0" d="M348.86,131.2l-3.08,10.04c1.14-0.54,2.82-1.3,5.06-2.27c2.4-0.96,5.5-1.59,9.31-1.88l4.19,5.71
			c-4.12,4.2-6.77,8.22-7.95,12.06c-0.25,0.81-0.45,1.66-0.6,2.55c-0.16,0.4-0.54,2.81-1.13,7.24l-2.63-2.51
			c0.48-5.52,1.13-9.6,1.94-12.27c0.67-2.18,1.52-4.24,2.57-6.19c-5.32,0.47-9.82,3.06-13.48,7.76l-3.08-5.98l4.76-15.53l-2.5-0.77
			l-2.75-5.09l29.89,9.17l2.75,5.09L348.86,131.2z"/>
		<path class="st0" d="M397.02,152.35l-14.8,26.61l-1.6-5.6l9.06-15.93c0.36-0.64,0.45-1.96,0.28-3.96
			c-0.19-2.28-0.72-3.59-1.59-3.94c-1.26-0.52-2.19-0.48-2.79,0.12c1.47,3.32,1.78,5.75,0.92,7.28c-0.19,0.34-0.67,0.92-1.44,1.75
			c-1.23,1.02-2.74,1.02-4.53,0.03c-1.45-0.81-2.29-2.25-2.51-4.32c-0.78,0.45-1.71,0.7-2.77,0.75c-1.07,0.05-1.97-0.13-2.72-0.55
			c-1.08-0.6-1.71-1.51-1.9-2.73c-0.18-1.22,0.02-2.37,0.62-3.44c0.58-1.04,1.65-1.89,3.21-2.56c1.41-0.62,2.77-0.89,4.1-0.81
			c-0.01-0.53-0.1-1.22-0.25-2.05c-0.4-0.88-1.06-1.6-1.99-2.16c0.98,0.54,0.05,0.03-2.79-1.55l-1.57-5.52l6.44,3.58
			c1.28,0.71,2.22,1.7,2.8,2.95c0.41,1.33,0.62,2.03,0.63,2.08c0.21,0.74,0.29,1.42,0.25,2.06c1.9-1.19,4.17-1.49,6.82-0.93
			c0.7,0.17,1.17,0.33,1.41,0.46c1.25,0.7,2.01,3.62,2.28,8.79l0.06,1.08l2.74-6.04l3.04-6.14c0.53,1.55,0.92,2.81,1.15,3.79
			c0.03,0.42-0.06,0.88-0.26,1.4c-0.13,0.24-0.27,0.48-0.4,0.72c-0.01,0.58,0.21,1.1,0.65,1.57l2.33,1.3l1.57,5.52L397.02,152.35z"
			/>
	</g>
	<g>
		<g>
			<polygon class="st1" points="289.97,262.95 278.92,262.95 282.86,171.97 			"/>
			<path class="st1" d="M287.97,417.51c-7.73,0.6-14.48-5.17-15.08-12.89c-0.04-0.55-0.05-1.17-0.03-1.7l3.09-71.32h11.22v-49.9
				h4.26l9.43,120.73C301.46,410.15,295.69,416.9,287.97,417.51z"/>
			<path class="st1" d="M250.2,268.75c-2.27-2.24-5.32-4.02-9.29-4.98l3.37-74.64L250.2,268.75z"/>
			<path class="st1" d="M252.23,296.07c-0.25-0.27-0.51-0.54-0.78-0.79c0.23-0.28,0.45-0.56,0.65-0.86L252.23,296.07z"/>
			<path class="st1" d="M248.1,402.78c-6.62,0.5-12.38-4.47-12.88-11.09c-0.03-0.46-0.03-0.99-0.02-1.44l2.66-58.86
				c7.2-0.87,12.94-4.54,16.24-10.07l5.1,68.59C259.69,396.53,254.72,402.29,248.1,402.78z"/>
			<path class="st1" d="M404.32,362.48c-6.08,0.47-11.39-4.07-11.86-10.15c-0.04-0.58-0.04-1.22,0.01-1.78l1.86-22.13
				c5.91-3.84,9.96-10.3,11.51-18.81l0.85-4.71h-10.38l1.28-15.21h8.78l-0.55-4.49c-0.67-5.39-2.73-10.97-6.57-15.29l4.67-55.46
				l10.55,136.18C414.94,356.7,410.39,362.01,404.32,362.48z"/>
			<path class="st1" d="M211.23,370.44c-6.07,0.61-11.48-3.81-12.09-9.87c-0.05-0.57-0.06-1.2-0.03-1.75l8.13-138.54l4.28,42.67
				h-5.41v68.65h12.3l2.69,26.76C221.71,364.43,217.29,369.83,211.23,370.44z"/>
			<polygon class="st1" points="223.85,331.6 231.7,331.6 229.25,384.42 			"/>
			<path class="st1" d="M232.03,305c0.32,0,0.62,0.01,0.9,0.02l-0.39,8.44c-0.14,0.01-0.29,0.01-0.45,0.01h-6.53V305H232.03z"/>
			<path class="st1" d="M232.68,281.08c0.53,0,0.97,0.04,1.35,0.11l-0.26,5.59c-0.4,0.06-0.87,0.09-1.42,0.09h-6.79v-5.79H232.68z"
				/>
			<path class="st1" d="M237.38,208.85l-2.51,54.12c-0.39-0.01-0.78-0.02-1.18-0.02h-16.85l-5.45-53.38
				c-0.74-7.16,4.48-13.56,11.64-14.29c7.16-0.74,13.56,4.48,14.29,11.64C237.39,207.54,237.4,208.24,237.38,208.85z"/>
			<polygon class="st1" points="268.11,331.6 269.75,331.6 266.76,407.3 257.1,281.7 268.11,281.7 			"/>
			<path class="st1" d="M275.6,183.61l-3.14,79.34h-16.8l-6.06-78.86c-0.55-7.17,4.82-13.43,11.99-13.98
				c7.17-0.55,13.43,4.81,13.98,11.98C275.61,182.6,275.61,183.11,275.6,183.61z"/>
			<path class="st1" d="M318.38,176.73l-4.07,86.22h-10.98v68.65h7.74l-3.52,74.7l-8.24-124.6h3.32v-18.75h-4.56l-5.69-85.98
				c-0.47-7.17,4.96-13.38,12.14-13.85c7.17-0.47,13.37,4.96,13.85,12.13C318.4,175.75,318.41,176.24,318.38,176.73z"/>
			<path class="st1" d="M359.33,185.17l-4.68,96.13c0,0.01,0,0.01,0,0.01c-1.72,4.75-2.64,10.23-2.64,16.28
				c0,4.24,0.43,8.21,1.27,11.85v0.01l-4.78,98.3l-5.2-76.15h8.38l-1.23-4.97c-0.61-2.48-0.61-7.37-0.61-10.6v-2.99
				c0-6.63-1.32-11.64-3.93-15c2.58-2.78,5.01-7.29,5.01-14.44c0-9.14-4.65-16.05-12.19-19.03l-5.4-79.15
				c-0.49-7.17,4.93-13.39,12.11-13.88c7.17-0.49,13.39,4.93,13.88,12.11C359.35,184.14,359.35,184.69,359.33,185.17z"/>
			<path class="st1" d="M381.38,332.41c2.8-0.13,5.41-0.63,7.82-1.47l-3.7,53.48L381.38,332.41z"/>
			<path class="st1" d="M392.06,289.69L391,304.9h-3.27l-0.8,2.95c-1.22,4.49-3.13,6.32-6.59,6.32c-0.14,0-0.27,0-0.4-0.02
				l-2.63-33.2c0.8-0.39,1.71-0.6,2.74-0.6c2.68,0,5.6,0.74,6.85,6.22l0.71,3.12H392.06z"/>
			<path class="st1" d="M397.63,209.14l-3.89,56.25c-3.55-2.07-7.97-3.32-13.34-3.32c-1.57,0-3.09,0.12-4.55,0.36l-4.21-53.16
				c-0.57-7.18,4.78-13.45,11.96-14.02c7.18-0.57,13.46,4.79,14.03,11.96C397.67,207.84,397.67,208.53,397.63,209.14z"/>
			<path class="st1" d="M183.99,259.02l3.49,56.97c0.14,2.21-1.55,4.11-3.76,4.25c-2.21,0.14-4.11-1.55-4.25-3.76
				c-0.01-0.18-0.01-0.38,0.01-0.56L183.99,259.02z"/>
			<path class="st1" d="M198.56,245.38l-5.51,98.52l-6.49-98.46c-0.22-3.31,2.29-6.18,5.6-6.39s6.18,2.29,6.39,5.6
				C198.57,244.88,198.57,245.15,198.56,245.38z"/>
			<path class="st1" d="M422.74,245.38l-5.51,98.52l-6.49-98.46c-0.22-3.31,2.29-6.18,5.6-6.39c3.31-0.22,6.18,2.29,6.39,5.6
				C422.75,244.88,422.75,245.15,422.74,245.38z"/>
			<path class="st1" d="M426.42,259.02l3.49,56.97c0.14,2.21-1.55,4.11-3.76,4.25c-2.21,0.14-4.11-1.55-4.25-3.76
				c-0.01-0.18-0.01-0.38,0.01-0.56L426.42,259.02z"/>
			<path class="st1" d="M359,272.97l4-83.8l5.52,75.6C364.78,266.63,361.57,269.42,359,272.97z"/>
			<path class="st1" d="M366.38,400.79c-6.62,0.49-12.38-4.49-12.86-11.11c-0.04-0.47-0.04-1-0.02-1.45l3.31-69.32
				c0.54,1.01,1.14,1.98,1.79,2.89c3.69,5.21,8.74,8.59,14.8,9.96l4.1,56.17C377.98,394.55,373,400.31,366.38,400.79z"/>
			<path class="st1" d="M327.65,281.39c3.48,0,4.12,1.24,4.12,3.69c0,2.7-0.4,3.8-4.38,3.8h-5.26v-7.49H327.65z"/>
			<path class="st1" d="M329.78,262.95h-8.3l4.59-92.89l6.6,93.05C331.74,263,330.77,262.95,329.78,262.95z"/>
			<path class="st1" d="M329.58,417.51c-7.73,0.55-14.44-5.27-14.99-13c-0.04-0.54-0.04-1.16-0.02-1.69l3.52-71.22h4.04v-24.28h3.26
				c3.63,0,4.62,0.7,4.87,1c0.52,0.6,0.78,2.2,0.78,4.77v0.89c0,7.05,0.21,11.76,1.28,14.9l0.92,2.72h4.3l5.03,70.92
				C343.12,410.25,337.3,416.96,329.58,417.51z"/>
		</g>
		<g>
			<path class="st0" d="M210.1,266.95h23.58c13.04,0,17.99,7.64,17.99,15.52c0,6.84-3.23,11.28-6.87,13.15
				c3.64,1.54,8.41,5.85,8.41,13.82c0,10.38-7.26,18.16-18.74,18.16H210.1V266.95z M232.35,290.87c5.55,0,7.84-2.8,7.84-7.06
				c0-4.44-3-6.74-7.5-6.74h-11.12v13.79H232.35z M221.56,317.47h10.53c6.31,0,9.17-2.96,9.17-8.46c0-4.89-2.81-8.01-9.23-8.01
				h-10.47V317.47z"/>
			<path class="st0" d="M272.11,277.69h-15.52v-10.75h42.04v10.75h-15.47v49.9h-11.06V277.69z"/>
			<path class="st0" d="M318.12,303.32v24.27h-10.79v-60.65h22.45c11.14,0,17.14,7.28,17.14,16.65c0,8.14-3.73,12.54-7.42,14.35
				c2.53,1.11,6.35,4.24,6.35,15.09v2.99c0,4.08,0.03,8.72,0.73,11.56H336.1c-0.9-2.64-1.07-7.18-1.07-13.62v-0.89
				c0-6.63-1.41-9.77-9.64-9.77H318.12z M318.12,292.88h9.26c6.05,0,8.38-2.73,8.38-7.8c0-4.93-2.72-7.69-8.12-7.69h-9.52V292.88z"
				/>
			<path class="st0" d="M401.9,308.9c-2.05,11.31-9.24,19.55-22.03,19.55c-16.2,0-23.86-13.61-23.86-30.86
				c0-16.63,7.9-31.52,24.39-31.52c13.6,0,20.2,9.48,21.45,19.62H390.8c-1.07-4.68-3.81-9.33-10.75-9.33
				c-9.11,0-12.63,9.73-12.63,20.77c0,10.25,3.05,21.05,12.93,21.05c7.21,0,9.48-5.73,10.45-9.27H401.9z"/>
		</g>
	</g>
</g>
</svg>
